# xmcd
#
# Track frame offsets: 
#        151
#        15640
#        31341
#        48606
#        65663
#        80628
#        97709
#        112886
#        125821
#        143626
#
# Disc length: 2127 seconds
#
# Revision: 0
# Processed by: cddbd v1.5.1PL2 Copyright (c) Steve Scherf et al.
# Submitted via: ExactAudioCopy v0.95b4
#
DISCID=81084d0a
DTITLE=เฉลิมพล  มาลาคำ - ดีกันเนาะ
DYEAR=2003
DGENRE=Country
TTITLE0=ดีกันเนาะ
TTITLE1=น้ำตาขี้เมา
TTITLE2=ลาบ้าน
TTITLE3=สีตายนำเขา
TTITLE4=มองภาพถ่ายเธอ
TTITLE5=เลี้ยงไก่ไว้ปล้ำ
TTITLE6=บักสาน
TTITLE7=คอยฮักที่ผั่งมูล
TTITLE8=รักแม่
TTITLE9=ห้ามแล้วบ่ฟัง
EXTD=
EXTT0=
EXTT1=
EXTT2=
EXTT3=
EXTT4=
EXTT5=
EXTT6=
EXTT7=
EXTT8=
EXTT9=
PLAYORDER=
